<svg xmlns="http://www.w3.org/2000/svg" width="25.593" height="25.62">
    <path d="M22.387 25.61h-19.2a3.2 3.2 0 0 1-3.2-3.2V3.21a3.2 3.2 0 0 1 3.2-3.2h19.2a3.2 3.2 0 0 1 3.2 3.2v19.2a3.2 3.2 0 0 1-3.2 3.2zm-9.6-17.76a4.954 4.954 0 0 0-4.5 2.88.244.244 0 0 1-.022.05 6.4 6.4 0 0 0-.128.33c-.019.05-.04.1-.057.15-.037.11-.067.23-.1.34-.014.05-.03.11-.042.16-.026.12-.044.24-.061.37-.007.05-.017.1-.023.15a5.074 5.074 0 0 0-.029.53 4.96 4.96 0 1 0 9.92 0 5.074 5.074 0 0 0-.029-.53c-.006-.05-.016-.1-.023-.15a4.462 4.462 0 0 0-.061-.37 4.716 4.716 0 0 0-.042-.16c-.028-.11-.058-.23-.1-.34-.017-.05-.038-.1-.057-.15a6.4 6.4 0 0 0-.128-.33.244.244 0 0 1-.022-.05 4.954 4.954 0 0 0-4.496-2.88zm9.92-3.68a1.278 1.278 0 0 0-1.28-1.28h-2.56a1.278 1.278 0 0 0-1.28 1.28v2.56a1.278 1.278 0 0 0 1.28 1.28h2.56a1.278 1.278 0 0 0 1.28-1.28V4.17zm0 6.56h-2.36a7.84 7.84 0 1 1-15.12 0h-2.36v10.72a1.278 1.278 0 0 0 1.28 1.28h17.28a1.278 1.278 0 0 0 1.28-1.28V10.73z" fill="#222222" fill-rule="evenodd"/>
</svg>